<svg xmlns="http://www.w3.org/2000/svg" width="446" height="446" viewBox="0 0 446 446" opacity="0.9"  fill="#f2f2f2" fill-opacity="0.6">
  <path id="Path_166" data-name="Path 166" d="M1890.6,889.237l27.058,27.059A52.593,52.593,0,0,1,1942,906.162V868.03a82.8,82.8,0,0,0-63.312-80.236,81.446,81.446,0,0,0-12.118,43.146h-.105a82.012,82.012,0,0,0,24.134,58.3ZM1786.748,785.39l68.535,68.534a100.163,100.163,0,0,1-2.717-22.984h0a96.133,96.133,0,0,1,11.178-45.341c-1.463-.1-2.82-.209-4.281-.209Zm58.61,78.459h0a94.811,94.811,0,0,0-22.984-2.717,96.123,96.123,0,0,0-45.343,11.179c-.1-1.461-.209-2.82-.209-4.281V795.315l68.535,68.534ZM1776.823,1119.6l68.535-68.431a94.757,94.757,0,0,1-22.984,2.717,96.123,96.123,0,0,1-45.343-11.179c-.1,1.461-.209,2.821-.209,4.388v72.5Zm78.46-58.506h0a94.713,94.713,0,0,0-2.717,22.984h0a96.13,96.13,0,0,0,11.178,45.341c-1.463.106-2.82.106-4.281.106h-72.715l68.535-68.431Zm255.857,68.431-68.535-68.431a94.774,94.774,0,0,1,2.718,22.984,96.1,96.1,0,0,1-11.18,45.341c1.464.106,2.819.106,4.388.106Zm-58.609-78.356h0a97.874,97.874,0,0,0,68.324-8.462c.106,1.461.106,2.821.106,4.388v72.5l-68.43-68.431ZM1740.153,950.46h69.372a92.765,92.765,0,0,1-18.284-14.314,97.416,97.416,0,0,1-24.134-40.014c-1.045,1.044-2.089,1.984-3.133,3.03a82.865,82.865,0,0,0-23.822,51.3Zm69.372,14h-69.372a82.866,82.866,0,0,0,23.822,51.4,40.61,40.61,0,0,0,3.133,2.927,98.043,98.043,0,0,1,42.417-54.328ZM1942,1166.2V1096.93a97.453,97.453,0,0,1-14.419,18.286,95.68,95.68,0,0,1-40.013,24.131c1.045,1.045,1.986,2.092,3.03,3.136A81.655,81.655,0,0,0,1942,1166.2Zm13.894-69.268V1166.2a81.651,81.651,0,0,0,51.4-23.715c1.045-1.045,2.091-2.092,3.03-3.136a96.333,96.333,0,0,1-40.013-24.131,97.451,97.451,0,0,1-14.418-18.286Zm201.844-132.472h-69.266a100.235,100.235,0,0,1,18.18,14.418,96.336,96.336,0,0,1,24.132,40.013c1.044-.941,2.091-1.986,3.136-3.03l.208-.1a82.905,82.905,0,0,0,23.609-51.3Zm-69.266-14h69.266a82.319,82.319,0,0,0-23.818-51.3c-1.045-1.046-2.092-1.986-3.136-3.03a97.446,97.446,0,0,1-42.312,54.328ZM1955.891,748.72v69.371a94.143,94.143,0,0,1,14.418-18.283,96.313,96.313,0,0,1,40.013-24.134c-.938-1.045-1.985-2.089-2.924-3.136a83.411,83.411,0,0,0-51.507-23.818ZM1942,818.091h0a94.145,94.145,0,0,0-14.419-18.283,95.661,95.661,0,0,0-40.013-24.134c1.045-1.045,1.986-2.089,3.03-3.136A82.891,82.891,0,0,1,1942,748.72v69.371Zm178.964-22.776-68.43,68.534a94.806,94.806,0,0,1,22.984-2.717,96.113,96.113,0,0,1,45.34,11.179c.106-1.461.106-2.924.106-4.281V795.315Zm-78.356,58.609h0a94.769,94.769,0,0,0,2.718-22.984,96.106,96.106,0,0,0-11.18-45.341c1.464-.1,2.819-.209,4.388-.209h72.609l-68.535,68.534Zm-170.4,288.769a102.151,102.151,0,0,1-12.743.835h-96.536V1047.1a86.384,86.384,0,0,1,.838-12.852,122.1,122.1,0,0,1-9.717-8.462,96.981,96.981,0,0,1,0-136.547,122.826,122.826,0,0,1,9.717-8.464,85.856,85.856,0,0,1-.838-12.743V771.495h96.536a85.026,85.026,0,0,1,12.743.837,122.741,122.741,0,0,1,8.464-9.716,96.98,96.98,0,0,1,136.548,0,122.251,122.251,0,0,1,8.461,9.716,86.512,86.512,0,0,1,12.852-.837h96.43V868.03a86.252,86.252,0,0,1-.835,12.743,123.692,123.692,0,0,1,9.716,8.464,96.983,96.983,0,0,1,0,136.547l-.838.732a88.448,88.448,0,0,1-8.878,7.73,86.782,86.782,0,0,1,.835,12.852v96.43h-96.43a103.948,103.948,0,0,1-12.852-.835,122.39,122.39,0,0,1-8.461,9.715,96.984,96.984,0,0,1-136.548,0,122.882,122.882,0,0,1-8.464-9.715Zm-12.743-178.235h38.131a52.144,52.144,0,0,0,10.135,24.343l-27.059,27.058h0a82.779,82.779,0,0,1-101.442,11.911,83.075,83.075,0,0,1,80.235-63.312Zm19.119,162.875h0a83.294,83.294,0,0,1-12.12-43.252h.105a82.079,82.079,0,0,1,24.029-58.3l27.058-27.057A52.624,52.624,0,0,0,1942,1008.86V1047.1a83.019,83.019,0,0,1-63.415,80.235Zm77.309-118.578h0a50.521,50.521,0,0,0,24.343-10.028l27.058,27.057h.105a83.088,83.088,0,0,1,11.8,101.549,83.377,83.377,0,0,1-63.312-80.235v-38.343Zm162.875,19.015h0a82.931,82.931,0,0,1-101.548-11.911L1990.16,988.8a52.146,52.146,0,0,0,10.134-24.343h38.237a83.082,83.082,0,0,1,80.235,63.312Zm-118.472-77.31h0a52.693,52.693,0,0,0-10.134-24.239l27.058-27.058h0a82.188,82.188,0,0,1,58.3-24.134,83.292,83.292,0,0,1,43.251,12.12,82.518,82.518,0,0,1-80.235,63.312ZM2019.2,787.795h0a82.781,82.781,0,0,1-11.91,101.443L1980.235,916.3a51.7,51.7,0,0,0-24.343-10.134V868.03a82.286,82.286,0,0,1,24.343-58.3,81.426,81.426,0,0,1,38.968-21.939Zm-239.975,99.354h0a82.629,82.629,0,0,1,101.442,12.014l27.059,27.058a52.69,52.69,0,0,0-10.135,24.239h-38.131a82.511,82.511,0,0,1-80.235-63.312Zm143.022,43.669a37.711,37.711,0,0,0,0,53.387h0a37.706,37.706,0,0,0,53.388,0h0l.416-.312a37.916,37.916,0,0,0,10.66-26.432,37.753,37.753,0,0,0-64.463-26.642Z" transform="translate(-1725.945 -734.511)"  fill-rule="evenodd"/>
</svg>
