<svg xmlns="http://www.w3.org/2000/svg" width="647.25" height="647.25" viewBox="0 0 647.25 647.25">
  <path id="Path_167" data-name="Path 167" d="M2355,450.334a304.2,304.2,0,0,0-16.374-98.7,98.049,98.049,0,0,0-21.832,8.34,99.485,99.485,0,0,0-24.865,18.342l-72.168,72.019,72.168,72.166a99.474,99.474,0,0,0,24.865,18.348,106.027,106.027,0,0,0,21.832,8.338A305.107,305.107,0,0,0,2355,450.334Zm-492.6,42.907c24.261,4.851,47.155-6.518,73.538-19.406,16.524-8.19,34.263-16.984,54.884-23.5-20.621-6.371-38.36-15.162-54.884-23.349-26.383-13.042-49.277-24.41-73.538-19.558l42.911,42.907L1862.4,493.241ZM1847.54,392.72l-20.617-20.772a102.346,102.346,0,0,1,65.343-23.5,100.829,100.829,0,0,1,72.172,29.868l41.088,40.784a51.428,51.428,0,0,0-7.278,14.4c-20.167-5.915-37.906-14.709-54.279-22.891-33.356-16.528-61.858-30.477-96.429-17.893Zm150.708,74.445h0a51.44,51.44,0,0,0,7.278,14.4L1964.438,522.5a102.11,102.11,0,0,1-137.515,6.219l20.771-20.621c34.417,12.583,62.919-1.516,96.275-18.044,16.373-8.033,34.112-16.826,54.279-22.89ZM2092.4,637.58c5-24.26-6.366-47.154-19.407-73.534-8.188-16.527-16.982-34.266-23.5-54.887-6.368,20.621-15.011,38.36-23.349,54.887-13.042,26.38-24.26,49.274-19.409,73.534l42.758-42.91,42.906,42.91Zm-100.52,14.7-20.621,20.773a102.108,102.108,0,0,1,6.216-137.514l40.938-41.088a52.95,52.95,0,0,0,14.25,7.275c-5.909,20.163-14.707,37.906-22.741,54.279-16.526,33.353-30.625,61.707-18.041,96.274Zm74.445-150.553h0a50.533,50.533,0,0,0,14.553-7.275l40.783,41.088h0a102.107,102.107,0,0,1,6.217,137.514l-20.619-20.773c12.583-34.417-1.363-62.92-17.889-96.274-8.188-16.373-16.982-34.116-23.045-54.279Zm170.415-94.3-42.91,42.907,42.91,42.907c-24.26,4.851-47.154-6.518-73.537-19.406-16.524-8.19-34.263-16.984-54.884-23.5,20.621-6.371,38.36-15.162,54.884-23.349,26.383-13.042,49.277-24.41,73.537-19.558ZM2251.449,508.1l20.769,20.621A102.114,102.114,0,0,1,2134.7,522.5l-40.934-40.932a61.254,61.254,0,0,0,7.278-14.4c20.011,6.063,37.752,14.857,54.125,22.89,33.355,16.528,61.858,30.627,96.279,18.044Zm-150.4-74.595h0a61.236,61.236,0,0,0-7.278-14.4l40.934-40.784a101.079,101.079,0,0,1,72.172-29.868,102.366,102.366,0,0,1,65.346,23.5l-20.769,20.772c-34.421-12.584-62.924,1.365-96.279,17.893-16.373,8.182-34.115,16.976-54.125,22.891Zm-94.307-170.263c-4.851,24.256,6.367,47,19.409,73.533,8.338,16.524,16.98,34.267,23.349,54.884,6.517-20.617,15.311-38.36,23.5-54.884,13.042-26.533,24.412-49.427,19.407-73.684L2049.5,306.148l-42.758-42.907Zm100.522-14.863c12.583,34.571-1.363,63.073-17.889,96.429-8.188,16.376-16.982,34.112-23.045,54.128a51.42,51.42,0,0,1,14.4,7.277l40.937-40.935a101.062,101.062,0,0,0,29.869-72.172,102.366,102.366,0,0,0-23.652-65.5l-20.619,20.769Zm-74.6,150.557h0a57.516,57.516,0,0,0-14.25,7.277l-40.938-40.935h0a102.108,102.108,0,0,1-6.216-137.514l20.621,20.615c-12.584,34.571,1.516,63.073,18.041,96.429,8.034,16.376,16.832,34.112,22.741,54.128ZM1878.621,254.6a17.528,17.528,0,1,0,0,24.713,17.474,17.474,0,0,0,0-24.713ZM1790.23,432.9a17.511,17.511,0,1,0,17.588,17.437A17.535,17.535,0,0,0,1790.23,432.9Zm63.526,188.46a17.947,17.947,0,0,0,0,24.863,17.581,17.581,0,1,0,0-24.863Zm178.3,88.391A17.51,17.51,0,1,0,2049.5,692.16a17.534,17.534,0,0,0-17.437,17.589Zm188.609-63.528a17.476,17.476,0,0,0,24.715,0,17.661,17.661,0,0,0,0-24.863,17.528,17.528,0,0,0-24.715,24.863Zm88.242-178.3h0a17.511,17.511,0,1,1,17.434-17.585,17.6,17.6,0,0,1-17.434,17.585ZM2245.382,279.31a17.475,17.475,0,1,0-24.715-24.713,17.211,17.211,0,0,0,0,24.713,17.476,17.476,0,0,0,24.715,0Zm-178.3-88.241a17.51,17.51,0,1,0-17.583,17.589,17.47,17.47,0,0,0,17.583-17.589Zm-128.569,370.4a121.47,121.47,0,0,1-46.244,9.1,119.839,119.839,0,0,1-78.535-29.111,112.8,112.8,0,0,1-22.894,15.461,117.551,117.551,0,0,1-23.806,9.4,304.792,304.792,0,0,0,166.626,166.626,127.033,127.033,0,0,1,9.249-23.8,119.922,119.922,0,0,1,15.618-22.891,119.837,119.837,0,0,1-29.111-78.539,121.445,121.445,0,0,1,9.1-46.242ZM1813.731,359.364a119.825,119.825,0,0,1,78.535-29.111,121.418,121.418,0,0,1,46.244,9.1,121.324,121.324,0,0,1,20.015-124.935,114.335,114.335,0,0,1-15.618-22.74,131.283,131.283,0,0,1-9.249-23.806A304.816,304.816,0,0,0,1767.031,334.5a126.646,126.646,0,0,1,23.806,9.249,120.078,120.078,0,0,1,22.894,15.614Zm346.9,202.105h0a122.02,122.02,0,0,0,46.243,9.1,120.532,120.532,0,0,0,78.689-29.111,108.636,108.636,0,0,0,22.894,15.461,110.94,110.94,0,0,0,23.8,9.4,309.568,309.568,0,0,1-66.711,100.067,305.106,305.106,0,0,1-100.067,66.56,127.016,127.016,0,0,0-9.249-23.8,113.432,113.432,0,0,0-15.615-22.891,120,120,0,0,0,29.261-78.539,121.6,121.6,0,0,0-9.248-46.242Zm0-222.117h0a120.375,120.375,0,0,0-20.013-124.935,112.521,112.521,0,0,0,15.615-22.74,131.265,131.265,0,0,0,9.249-23.806A305.729,305.729,0,0,1,2332.259,334.5a119.064,119.064,0,0,0-23.8,9.249,115.362,115.362,0,0,0-22.894,15.614,120.518,120.518,0,0,0-78.689-29.111,121.967,121.967,0,0,0-46.243,9.1ZM1760.515,549.186h0a306.121,306.121,0,0,1,0-197.554,98.113,98.113,0,0,1,21.833,8.34,99.5,99.5,0,0,1,24.863,18.342l72.172,72.019L1807.21,522.5a99.492,99.492,0,0,1-24.863,18.348,102.9,102.9,0,0,1-21.833,8.338Zm387.833,190.279h0a306.083,306.083,0,0,1-197.558,0,106.277,106.277,0,0,1,8.34-21.833,99.472,99.472,0,0,1,18.346-24.863L2049.5,620.6l40.481,40.329.151.155,31.689,31.685a102.756,102.756,0,0,1,18.192,24.863,106.127,106.127,0,0,1,8.338,21.833Zm0-578.111h0a98.178,98.178,0,0,1-8.338,21.833,102.81,102.81,0,0,1-18.192,24.863L2049.5,280.221l-72.02-72.172a102.284,102.284,0,0,1-18.346-24.863,106.335,106.335,0,0,1-8.34-21.833,306.084,306.084,0,0,1,197.558,0Zm130.09,60.191A323.758,323.758,0,1,1,2049.5,126.784a322.062,322.062,0,0,1,228.942,94.761Zm-193.16,228.79a35.987,35.987,0,0,0-35.781-35.783,36.823,36.823,0,0,0-25.322,10.465,35.78,35.78,0,0,0,25.322,61.1,35.723,35.723,0,0,0,35.781-35.782Z" transform="translate(-1725.945 -126.784)" fill="#f2f2f2" fill-rule="evenodd"/>
</svg>
